<svg xmlns="http://www.w3.org/2000/svg" xmlns:xlink="http://www.w3.org/1999/xlink" viewBox="0 0 320 320">
  <defs>
    <style>
      .a {
        fill: url(#a);
      }

      .b {
        fill: #fff;
      }
    </style>
    <radialGradient id="a" data-name="名称未設定グラデーション 105" cx="160" cy="163.704" fx="273.6152219355377" fy="-59.97290795068574" r="250.878" gradientUnits="userSpaceOnUse">
      <stop offset="0.302" stop-color="#ff931e"/>
      <stop offset="0.306" stop-color="#ff931f"/>
      <stop offset="0.642" stop-color="#ff866a"/>
      <stop offset="0.881" stop-color="#ff7e9a"/>
      <stop offset="1" stop-color="#ff7bac"/>
    </radialGradient>
  </defs>
  <title>icon2</title>
  <g>
    <circle class="a" cx="160" cy="160" r="160"/>
    <g>
      <path class="b" d="M94.366,256.938c-12.993,0-37.913,0-37.913-32.589,0-6.6,1.064-13.419,2.13-20.022A129.814,129.814,0,0,0,60.5,184.519c0-7.881-2.557-18.319-19.383-18.319V155.338c16.826,0,19.383-9.372,19.383-18.318a127.763,127.763,0,0,0-1.917-20.234c-1.066-7.03-2.13-13.632-2.13-20.661,0-31.311,27.263-31.311,37.913-31.311V76.742c-9.8,0-23.43,0-23.43,21.087a104.619,104.619,0,0,0,1.917,18.105A94.194,94.194,0,0,1,74.77,134.89c0,15.123-6.6,22.791-16.613,25.559v.427c10.01,2.556,16.613,10.65,16.613,25.773a92.451,92.451,0,0,1-2.13,18.957,133.272,133.272,0,0,0-1.7,18.317c0,21.3,14.058,21.3,23.43,21.3Z"/>
      <path class="b" d="M103.027,132.121c0-7.881,5.325-13.632,12.566-13.632,7.668,0,12.568,5.751,12.568,13.632,0,7.668-4.9,13.632-12.568,13.632C107.5,145.753,103.027,139.151,103.027,132.121Z"/>
      <path class="b" d="M197.51,132.121c0-7.881,5.324-13.632,12.567-13.632,7.668,0,12.566,5.751,12.566,13.632,0,7.668-4.9,13.632-12.566,13.632C201.983,145.753,197.51,139.151,197.51,132.121Z"/>
      <path class="b" d="M225.634,64.814c10.651,0,37.914,0,37.914,31.311,0,2.769-1.065,11.5-1.917,20.022-1.065,8.733-2.131,17.465-2.131,20.873,0,8.946,2.557,18.318,19.383,18.318L278.67,166.2c-16.613,0-19.17,10.438-19.17,18.319,0,6.389,1.066,12.993,2.131,19.808.852,6.6,1.917,13.419,1.917,20.022,0,32.589-24.921,32.589-37.914,32.589V245.223c9.585,0,23.43,0,23.43-21.3a106.928,106.928,0,0,0-1.917-18.317,94.221,94.221,0,0,1-1.917-18.957c0-15.123,6.6-23,16.614-25.773v-.427c-10.011-2.768-16.614-10.436-16.614-25.559a92.443,92.443,0,0,1,2.13-18.956,130.109,130.109,0,0,0,1.7-18.105c0-21.087-13.632-21.087-23.43-21.087Z"/>
    </g>
  </g>
</svg>
